<svg xmlns="http://www.w3.org/2000/svg" xmlns:xlink="http://www.w3.org/1999/xlink" preserveAspectRatio="xMidYMid" width="21" height="21" viewBox="0 0 21 21"><defs><style>.cls-2{fill:#fff}</style></defs><path d="M11.946 10.287c0 0 8.286 8.284 8.286 8.284C20.692 19.032 20.692 19.778 20.232 20.238 20.001 20.468 19.7 20.583 19.398 20.583 19.096 20.583 18.794 20.468 18.564 20.238 18.564 20.238 10.278 11.954 10.278 11.954 10.278 11.954 1.993 20.238 1.993 20.238 1.763 20.468 1.461 20.583 1.159 20.583.858 20.583.556 20.468.326 20.238-.135 19.777-.135 19.031.326 18.571c0 0 8.285-8.284 8.285-8.284C8.611 10.287.326 2.004.326 2.004-.135 1.544-.135.798.326.337c.46-.46 1.206-.46 1.667.0.0.0 8.285 8.284 8.285 8.284.0.0 8.286-8.284 8.286-8.284C19.025-.124 19.771-.124 20.232.337 20.692.797 20.692 1.543 20.232 2.004 20.232 2.004 11.946 10.287 11.946 10.287z" id="path-1" class="cls-2" fill-rule="evenodd"/></svg>